<svg width="895" height="596" viewBox="0 0 895 596" fill="none" xmlns="http://www.w3.org/2000/svg">
<circle cx="305" cy="22" r="22" fill="#251C31"/>
<circle cx="417" cy="22" r="22" fill="#251C31"/>
<circle cx="472" cy="22" r="22" fill="#251C31"/>
<circle cx="531" cy="22" r="22" fill="#251C31"/>
<circle cx="586" cy="22" r="22" fill="#251C31"/>
<circle cx="365" cy="22" r="22" fill="#251C31"/>
<path d="M584 24.5C540.333 72 454.8 194 462 302" stroke="url(#paint0_linear_167_44)"/>
<path d="M522.5 41.5C478.833 89 445.8 203.5 453 311.5" stroke="url(#paint1_linear_167_44)"/>
<path d="M471 40C452 106 436.5 277.5 436.5 331.5" stroke="url(#paint2_linear_167_44)"/>
<path d="M303.5 34C347.167 81.5 428.2 226.5 421 334.5" stroke="url(#paint3_linear_167_44)"/>
<path d="M365 34C408.667 81.5 437.2 236 430 344" stroke="url(#paint4_linear_167_44)"/>
<path d="M414 37C433.253 109.332 435 290.819 435 350" stroke="url(#paint5_linear_167_44)"/>
<ellipse cx="452" cy="431" rx="271" ry="165" fill="url(#paint6_radial_167_44)"/>
<circle cx="440" cy="380" r="90" fill="url(#paint7_linear_167_44)"/>
<path d="M880.5 433.5C880.5 451.832 868.33 469.393 846.091 485.448C823.862 501.494 791.665 515.966 751.835 528.128C672.179 552.449 562.105 567.5 440.5 567.5C318.895 567.5 208.821 552.449 129.165 528.128C89.3346 515.966 57.1376 501.494 34.9093 485.448C12.6695 469.393 0.5 451.832 0.5 433.5C0.5 415.168 12.6695 397.607 34.9093 381.552C57.1376 365.506 89.3346 351.034 129.165 338.872C208.821 314.551 318.895 299.5 440.5 299.5C562.105 299.5 672.179 314.551 751.835 338.872C791.665 351.034 823.862 365.506 846.091 381.552C868.33 397.607 880.5 415.168 880.5 433.5Z" stroke="url(#paint8_linear_167_44)"/>
<path d="M826.5 433.5C826.5 451.863 815.931 469.427 796.661 485.469C777.393 501.509 749.482 515.975 714.949 528.134C645.886 552.451 550.445 567.5 445 567.5C339.555 567.5 244.114 552.451 175.051 528.134C140.518 515.975 112.607 501.509 93.3393 485.469C74.0687 469.427 63.5 451.863 63.5 433.5C63.5 415.137 74.0687 397.573 93.3393 381.531C112.607 365.491 140.518 351.025 175.051 338.866C244.114 314.549 339.555 299.5 445 299.5C550.445 299.5 645.886 314.549 714.949 338.866C749.482 351.025 777.393 365.491 796.661 381.531C815.931 397.573 826.5 415.137 826.5 433.5Z" stroke="url(#paint9_linear_167_44)"/>
<path d="M802.5 433.5C802.5 451.882 792.877 469.45 775.354 485.485C757.831 501.52 732.448 515.983 701.039 528.14C638.225 552.452 551.414 567.5 455.5 567.5C359.586 567.5 272.775 552.452 209.961 528.14C178.552 515.983 153.169 501.52 135.646 485.485C118.123 469.45 108.5 451.882 108.5 433.5C108.5 415.118 118.123 397.55 135.646 381.515C153.169 365.48 178.552 351.017 209.961 338.86C272.775 314.548 359.586 299.5 455.5 299.5C551.414 299.5 638.225 314.548 701.039 338.86C732.448 351.017 757.831 365.48 775.354 381.515C792.877 397.55 802.5 415.118 802.5 433.5Z" stroke="url(#paint10_linear_167_44)"/>
<path d="M597.5 364.5C597.5 440.114 529.275 501.5 445 501.5C360.725 501.5 292.5 440.114 292.5 364.5C292.5 288.886 360.725 227.5 445 227.5C529.275 227.5 597.5 288.886 597.5 364.5Z" stroke="url(#paint11_linear_167_44)"/>
<path d="M591.5 400C591.5 422.38 575.177 442.746 548.555 457.546C521.95 472.336 485.162 481.5 444.5 481.5C403.838 481.5 367.05 472.336 340.445 457.546C313.823 442.746 297.5 422.38 297.5 400C297.5 377.62 313.823 357.254 340.445 342.454C367.05 327.664 403.838 318.5 444.5 318.5C485.162 318.5 521.95 327.664 548.555 342.454C575.177 357.254 591.5 377.62 591.5 400Z" stroke="url(#paint12_linear_167_44)"/>
<path d="M853.093 387.749C853.093 386.196 851.426 384.725 848.87 383.813C849.46 380.776 849.198 378.358 848.043 377.584C847.763 377.401 847.446 377.309 847.125 377.317V378.382C847.314 378.382 847.465 378.426 847.593 378.507C848.149 378.88 848.391 380.297 848.203 382.122C848.158 382.571 848.084 383.044 847.994 383.526C847.138 383.285 846.269 383.112 845.393 383.006C844.872 382.166 844.302 381.368 843.69 380.617C845.025 379.17 846.278 378.378 847.131 378.378V377.312C846.004 377.312 844.529 378.249 843.038 379.872C841.548 378.26 840.073 377.332 838.947 377.332V378.396C839.795 378.396 841.052 379.185 842.388 380.622C841.814 381.325 841.241 382.122 840.696 383.006C839.818 383.11 838.948 383.286 838.091 383.531C838.001 383.074 837.929 382.612 837.878 382.146C837.685 380.321 837.923 378.903 838.476 378.526C838.598 378.44 838.758 378.401 838.947 378.401V377.337C838.603 377.337 838.291 377.423 838.022 377.603C836.87 378.378 836.613 380.789 837.206 383.818C834.659 384.736 833 386.201 833 387.749C833 389.301 834.667 390.772 837.223 391.683C836.633 394.722 836.895 397.139 838.05 397.912C838.316 398.094 838.628 398.18 838.971 398.18C840.098 398.18 841.572 397.244 843.063 395.62C844.554 397.234 846.028 398.16 847.155 398.16C847.478 398.168 847.797 398.076 848.08 397.893C849.231 397.12 849.489 394.708 848.895 391.679C851.435 390.767 853.093 389.296 853.093 387.749ZM847.76 384.563C847.601 385.201 847.417 385.831 847.208 386.449C846.865 385.673 846.489 384.917 846.081 384.185C846.663 384.286 847.224 384.41 847.761 384.563H847.76ZM845.885 389.65C845.578 390.274 845.249 390.883 844.898 391.474C843.669 391.601 842.433 391.602 841.204 391.479C840.499 390.305 839.882 389.062 839.361 387.763C839.882 386.462 840.495 385.214 841.196 384.034C842.425 383.907 843.66 383.905 844.889 384.028C845.229 384.596 845.562 385.203 845.881 385.844C846.192 386.469 846.475 387.103 846.733 387.744C846.472 388.392 846.189 389.028 845.885 389.65ZM847.208 389.029C847.429 389.668 847.618 390.309 847.773 390.93C847.237 391.083 846.671 391.212 846.086 391.311C846.492 390.573 846.866 389.811 847.208 389.029ZM843.055 394.125C842.674 393.666 842.293 393.156 841.916 392.596C842.285 392.616 842.661 392.63 843.042 392.63C843.428 392.63 843.808 392.621 844.181 392.596C843.813 393.156 843.432 393.666 843.055 394.125ZM840.007 391.311C839.443 391.216 838.883 391.09 838.328 390.934C838.48 390.318 838.668 389.683 838.881 389.048C839.049 389.429 839.226 389.812 839.418 390.194C839.611 390.576 839.807 390.949 840.007 391.311ZM843.034 381.372C843.415 381.831 843.796 382.342 844.173 382.901C843.804 382.882 843.428 382.867 843.047 382.867C842.661 382.867 842.281 382.877 841.908 382.901C842.276 382.342 842.657 381.831 843.034 381.372ZM840.003 384.186C839.597 384.923 839.223 385.683 838.881 386.464C838.666 385.841 838.478 385.207 838.316 384.563C838.852 384.414 839.418 384.286 840.003 384.186ZM836.297 390.165C834.847 389.445 833.909 388.498 833.909 387.749C833.909 386.999 834.847 386.048 836.297 385.332C836.649 385.155 837.034 384.997 837.431 384.85C837.665 385.785 837.972 386.76 838.352 387.758C837.993 388.698 837.69 389.665 837.444 390.652C837.055 390.512 836.672 390.349 836.297 390.165ZM838.5 396.99C837.944 396.619 837.702 395.199 837.89 393.375C837.935 392.926 838.009 392.453 838.099 391.97C838.902 392.2 839.778 392.377 840.7 392.492C841.222 393.331 841.791 394.129 842.404 394.88C841.068 396.327 839.815 397.12 838.963 397.12C838.802 397.122 838.643 397.077 838.5 396.991V396.99ZM848.216 393.351C848.408 395.176 848.17 396.594 847.617 396.971C847.495 397.057 847.335 397.095 847.146 397.095C846.298 397.095 845.041 396.307 843.705 394.869C844.316 394.121 844.881 393.325 845.397 392.487C846.275 392.382 847.145 392.206 848.002 391.962C848.097 392.444 848.169 392.907 848.216 393.351ZM849.792 390.165C849.44 390.342 849.055 390.5 848.658 390.647C848.407 389.655 848.1 388.683 847.737 387.739C848.113 386.746 848.416 385.776 848.645 384.845C849.035 384.986 849.419 385.148 849.796 385.332C851.246 386.053 852.184 386.999 852.184 387.749C852.18 388.498 851.242 389.449 849.792 390.165Z" fill="#A900E4"/>
<path d="M843.042 389.931C843.539 389.931 844.015 389.701 844.366 389.292C844.717 388.882 844.914 388.327 844.914 387.748C844.914 387.169 844.717 386.614 844.366 386.204C844.015 385.795 843.539 385.565 843.042 385.565C842.546 385.565 842.07 385.795 841.719 386.204C841.368 386.614 841.17 387.169 841.17 387.748C841.17 388.327 841.368 388.882 841.719 389.292C842.07 389.701 842.546 389.931 843.042 389.931Z" fill="#A900E4"/>
<path d="M782.607 346.991H772.393C771.624 346.991 771 347.719 771 348.616V360.527C771 361.424 771.624 362.152 772.393 362.152H782.607C783.376 362.152 784 361.424 784 360.527V348.616C784 347.719 783.376 346.991 782.607 346.991ZM778.075 358.815C778.075 360.29 777.332 360.964 776.249 360.964C775.271 360.964 774.706 360.375 774.415 359.661L775.411 358.96C775.602 359.356 775.776 359.691 776.197 359.691C776.598 359.691 776.853 359.509 776.853 358.795V353.952H778.075V358.815ZM780.965 360.964C779.83 360.964 779.096 360.334 778.739 359.509L779.734 358.839C779.996 359.336 780.338 359.705 780.939 359.705C781.444 359.705 781.769 359.411 781.769 359.001C781.769 358.514 781.438 358.341 780.878 358.054L780.573 357.901C779.691 357.465 779.108 356.913 779.108 355.752C779.108 354.683 779.807 353.871 780.895 353.871C781.673 353.871 782.23 354.186 782.63 355.011L781.679 355.722C781.47 355.285 781.243 355.113 780.892 355.113C780.535 355.113 780.309 355.377 780.309 355.722C780.309 356.148 780.535 356.321 781.06 356.588L781.365 356.741C782.404 357.258 782.987 357.79 782.987 358.981C782.987 360.26 782.123 360.964 780.965 360.964Z" fill="#A900E4"/>
<path d="M886.996 451.948C886.756 451.948 886.513 451.869 886.302 451.72L884.092 450.115C883.763 449.886 883.924 449.807 884.031 449.763C884.472 449.574 884.561 449.535 885.03 449.205C885.081 449.17 885.145 449.183 885.195 449.222L886.893 450.458C886.953 450.502 887.039 450.502 887.097 450.458L893.711 445.771C893.772 445.727 893.811 445.639 893.811 445.551V436.177C893.811 436.085 893.772 436.001 893.707 435.953L887.097 431.271C887.036 431.227 886.953 431.227 886.893 431.271L880.286 435.957C880.221 436.001 880.182 436.089 880.182 436.182V445.551C880.182 445.639 880.221 445.727 880.286 445.767L882.098 447.05C883.082 447.653 883.684 446.945 883.684 446.228V436.978C883.684 436.846 883.77 436.744 883.877 436.744H884.715C884.819 436.744 884.909 436.846 884.909 436.978V446.233C884.909 447.842 884.192 448.765 882.95 448.765C882.567 448.765 882.266 448.765 881.428 448.255L879.695 447.028C879.265 446.725 879 446.158 879 445.547V436.177C879 435.571 879.265 434.999 879.695 434.696L886.302 430.009C886.721 429.718 887.276 429.718 887.691 430.009L894.305 434.7C894.735 435.003 895 435.571 895 436.182V445.551C895 446.158 894.735 446.725 894.305 447.033L887.691 451.72C887.48 451.869 887.24 451.948 886.996 451.948ZM892.336 442.711C892.336 440.957 891.369 440.491 889.338 440.161C887.283 439.827 887.075 439.655 887.075 439.066C887.075 438.578 887.251 437.927 888.773 437.927C890.13 437.927 890.631 438.288 890.839 439.413C890.857 439.519 890.936 439.598 891.025 439.598H891.885C891.938 439.598 891.988 439.572 892.024 439.523C892.06 439.475 892.078 439.409 892.074 439.343C891.942 437.404 890.893 436.503 888.773 436.503C886.885 436.503 885.761 437.479 885.761 439.119C885.761 440.895 886.882 441.387 888.69 441.607C890.857 441.867 891.025 442.258 891.025 442.781C891.025 443.687 890.431 444.074 889.038 444.074C887.286 444.074 886.903 443.533 886.774 442.465C886.76 442.35 886.681 442.267 886.585 442.267H885.729C885.621 442.267 885.539 442.372 885.539 442.5C885.539 443.867 886.144 445.498 889.041 445.498C891.132 445.494 892.336 444.478 892.336 442.711Z" fill="#A900E4"/>
<path fill-rule="evenodd" clip-rule="evenodd" d="M769.035 517.254C767.353 517.254 766 518.9 766 520.916C766 522.142 766.501 523.231 767.27 523.896C766.873 524.242 766.552 524.692 766.331 525.209C766.111 525.727 765.997 526.297 766 526.875C766 528.101 766.501 529.189 767.27 529.854C766.873 530.201 766.552 530.65 766.331 531.168C766.111 531.685 765.997 532.256 766 532.833C766 534.85 767.353 536.496 769.035 536.496C770.717 536.496 772.071 534.85 772.071 532.833V529.737C772.602 530.254 773.272 530.537 773.965 530.538C775.647 530.537 777 528.891 777 526.875C777.003 526.297 776.889 525.727 776.669 525.209C776.448 524.692 776.127 524.242 775.73 523.896C776.127 523.549 776.448 523.099 776.669 522.582C776.889 522.064 777.003 521.494 777 520.916C777 518.9 775.647 517.254 773.965 517.254H769.035ZM767.141 520.916C767.141 519.641 767.994 518.619 769.035 518.619H770.929V523.213H769.035C767.994 523.213 767.141 522.191 767.141 520.916ZM773.965 523.212H772.071V518.618H773.965C775.006 518.618 775.859 519.641 775.859 520.916C775.859 522.191 775.006 523.212 773.965 523.212ZM767.141 526.875C767.141 525.6 767.995 524.578 769.036 524.578H770.93V529.172H769.035C767.994 529.172 767.141 528.15 767.141 526.875H767.141ZM772.071 526.875C772.071 525.6 772.924 524.578 773.965 524.578C775.007 524.578 775.86 525.599 775.86 526.875C775.86 528.15 775.007 529.172 773.965 529.172C772.924 529.172 772.071 528.15 772.071 526.875H772.071ZM767.141 532.833C767.141 531.559 767.995 530.537 769.036 530.537H770.93V532.833C770.93 534.109 770.078 535.13 769.036 535.13C767.995 535.13 767.141 534.109 767.141 532.833Z" fill="#A900E4"/>
<path d="M837.334 449.615H828.256C827.01 449.615 826 450.793 826 452.246V462.437C826 463.89 827.01 465.068 828.256 465.068H837.334C838.58 465.068 839.591 463.89 839.591 462.437V452.246C839.591 450.793 838.58 449.615 837.334 449.615Z" fill="#A900E4"/>
<path d="M833.144 453.68L831.449 456.944L833.263 460.41C833.275 460.434 833.278 460.463 833.272 460.49C833.269 460.501 833.263 460.504 833.254 460.505L833.244 460.504L833.231 460.504C833.224 460.504 833.217 460.504 833.208 460.506H831.9L831.875 460.506C831.804 460.503 831.753 460.492 831.722 460.431C831.601 460.156 831.48 459.882 831.358 459.607C831.248 459.363 831.136 459.12 831.021 458.879L830.97 458.773C830.832 458.487 830.697 458.2 830.564 457.912H830.555C830.433 458.197 830.307 458.481 830.177 458.762C830.046 459.046 829.917 459.328 829.789 459.607C829.662 459.888 829.531 460.166 829.397 460.442C829.376 460.498 829.34 460.51 829.29 460.512L829.27 460.512H828.021L828.015 460.513L827.997 460.514C827.988 460.515 827.982 460.513 827.98 460.495C827.976 460.469 827.981 460.443 827.993 460.421L829.753 457.05L828.039 453.669C828.021 453.641 828.018 453.618 828.03 453.6C828.037 453.591 828.045 453.584 828.054 453.58C828.064 453.575 828.074 453.573 828.085 453.574H829.37C829.398 453.572 829.426 453.577 829.452 453.59C829.474 453.604 829.493 453.624 829.507 453.648C829.616 453.932 829.738 454.215 829.872 454.499C830.004 454.78 830.139 455.06 830.277 455.339C830.413 455.613 830.539 455.893 830.656 456.179H830.665C830.784 455.893 830.907 455.609 831.034 455.328C831.158 455.052 831.286 454.773 831.417 454.493C831.546 454.217 831.672 453.939 831.795 453.659C831.802 453.633 831.815 453.609 831.832 453.59C831.854 453.576 831.879 453.571 831.905 453.574H833.099C833.11 453.571 833.121 453.572 833.132 453.577C833.142 453.582 833.151 453.591 833.157 453.602C833.162 453.614 833.165 453.627 833.163 453.64C833.162 453.653 833.157 453.665 833.149 453.675L833.145 453.68L833.144 453.68ZM835.824 460.643L835.761 460.644C835.341 460.651 834.926 460.55 834.544 460.346C834.188 460.154 833.891 459.841 833.691 459.448C833.49 459.058 833.387 458.572 833.382 457.991L833.381 457.944C833.378 457.456 833.485 456.975 833.691 456.551C833.898 456.131 834.199 455.785 834.563 455.55L834.594 455.53C834.989 455.275 835.466 455.147 836.025 455.147L836.05 455.148L836.078 455.149L836.109 455.15L836.144 455.153L836.202 455.157L836.269 455.164L836.317 455.169V453.074C836.317 453.024 836.335 453 836.372 453H837.521C837.528 452.998 837.536 452.999 837.543 453.002C837.55 453.005 837.556 453.009 837.562 453.016C837.567 453.022 837.571 453.029 837.573 453.038C837.576 453.046 837.576 453.055 837.575 453.063V459.347C837.575 459.452 837.579 459.566 837.586 459.688L837.603 459.964L837.612 460.123C837.613 460.145 837.608 460.167 837.598 460.186C837.589 460.205 837.574 460.22 837.557 460.229C837.261 460.374 836.952 460.48 836.636 460.548C836.368 460.606 836.096 460.638 835.824 460.643ZM836.317 459.326V456.423C836.268 456.408 836.218 456.397 836.167 456.391C836.105 456.384 836.042 456.38 835.98 456.381C835.759 456.378 835.54 456.436 835.342 456.551C835.148 456.663 834.984 456.831 834.863 457.04C834.743 457.245 834.68 457.513 834.676 457.844L834.676 457.88C834.672 458.111 834.704 458.342 834.772 458.56C834.827 458.736 834.914 458.895 835.027 459.028C835.135 459.15 835.266 459.241 835.41 459.294C835.562 459.351 835.72 459.38 835.879 459.379C835.965 459.379 836.044 459.375 836.117 459.368C836.175 459.363 836.232 459.352 836.289 459.335L836.317 459.326Z" fill="black"/>
<path d="M723.624 360.445C724.693 359.729 725.759 359.007 726.831 358.299C727.849 357.626 729.046 358.246 729.277 359.555C729.41 360.312 729.121 361.13 728.535 361.528C726.613 362.834 724.689 364.135 722.755 365.416C722.156 365.812 721.54 365.739 720.994 365.253C720.44 364.76 720.265 364.08 720.395 363.288C720.544 362.686 720.883 362.283 721.346 361.981C722.112 361.483 722.865 360.958 723.624 360.445Z" fill="#A900E4"/>
<path d="M724.409 359.925C723.343 359.203 722.274 358.488 721.212 357.759C720.203 357.067 720.065 355.548 720.922 354.66C721.417 354.147 722.169 354.031 722.758 354.423C724.689 355.711 726.617 357.004 728.535 358.317C729.129 358.723 729.383 359.383 729.295 360.176C729.206 360.982 728.788 361.499 728.135 361.764C727.613 361.915 727.144 361.774 726.689 361.457C725.936 360.932 725.169 360.434 724.409 359.925Z" fill="#A900E4"/>
<path d="M714.693 359.414C714.009 359.868 713.325 360.32 712.641 360.775C712.242 361.04 711.846 361.315 711.444 361.577C710.635 362.104 709.673 361.795 709.214 360.867C708.776 359.981 709.028 358.833 709.807 358.302C711.714 357.005 713.625 355.717 715.543 354.443C716.131 354.052 716.741 354.101 717.285 354.568C717.86 355.061 718.047 355.755 717.919 356.568C717.839 356.765 717.791 356.995 717.671 357.15C717.476 357.403 717.255 357.644 717.008 357.821C716.246 358.37 715.466 358.886 714.693 359.414Z" fill="#A900E4"/>
<path d="M713.909 359.922C714.587 360.386 715.265 360.851 715.945 361.314C716.342 361.585 716.744 361.847 717.139 362.122C717.935 362.676 718.187 363.801 717.727 364.729C717.288 365.614 716.31 365.934 715.526 365.412C713.609 364.136 711.697 362.85 709.792 361.55C709.208 361.151 708.939 360.51 709.014 359.727C709.093 358.901 709.514 358.364 710.182 358.088C710.368 358.07 710.563 358.003 710.738 358.046C711.023 358.117 711.313 358.22 711.568 358.38C712.357 358.876 713.13 359.406 713.909 359.922Z" fill="#A900E4"/>
<path fill-rule="evenodd" clip-rule="evenodd" d="M127 419.295C123.134 419.295 120 423.211 120 428.041C120 432.871 123.134 436.788 127 436.788C130.866 436.788 134 432.871 134 428.041C134 423.211 130.866 419.295 127 419.295ZM127.082 433.156C124.825 433.156 122.998 430.868 122.998 428.041C122.998 425.215 124.825 422.926 127.082 422.926C128.184 422.926 129.106 423.434 129.813 424.259L128.661 425.701V425.698C128.233 425.186 127.689 424.924 127.082 424.924C125.734 424.924 124.639 426.35 124.639 428.038C124.639 429.726 125.734 431.156 127.082 431.156C128.304 431.156 129.136 430.28 129.308 429.077H127.082V427.082H130.923C130.974 427.425 131.002 427.782 131.002 428.156C131.002 431.079 129.44 433.156 127.082 433.156Z" fill="#A900E4"/>
<path d="M31.2117 487.976H33.101V488.913H32.0017V489.851H33.101V490.788H31.2117V487.976ZM33.4784 487.976H35.3685V488.791H34.2692V488.954H35.3685V490.829H33.4784V489.973H34.5777V489.81H33.4784V487.976ZM35.7466 487.976H37.6352V488.791H36.5359V488.954H37.6352V490.829H35.7466V489.973H36.8459V489.81H35.7466V487.976Z" fill="#A900E4"/>
<path fill-rule="evenodd" clip-rule="evenodd" d="M34.4935 508.308L29.4784 506.685L28 492.077H41L39.5223 506.683L34.4935 508.308ZM30.9228 498.69L31.0608 500.481H36.3886L36.2102 502.804L34.4957 503.344H34.4942L32.7826 502.805L32.6728 501.377H31.1294L31.3446 504.19L34.4935 505.209L37.6474 504.19L38.0317 499.17L38.0692 498.69L38.3466 495.063H30.6462L30.7863 496.855H36.6623L36.5222 498.69H30.9228Z" fill="#A900E4"/>
<path d="M187.501 326.63H198.501V340.106H187.501V326.63ZM187 340.736H199V326H187V340.736ZM194.86 331.252C194.86 331.202 194.875 331.177 194.92 331.177H195.705C195.745 331.177 195.765 331.195 195.765 331.252V336.221C195.765 336.271 195.755 336.296 195.705 336.296H194.931C194.881 336.296 194.866 336.265 194.866 336.214V331.252H194.86H194.86ZM194.805 329.823C194.805 329.652 194.859 329.489 194.955 329.369C195.05 329.248 195.18 329.18 195.315 329.18C195.45 329.18 195.58 329.248 195.676 329.369C195.771 329.489 195.825 329.652 195.825 329.823C195.83 329.91 195.82 329.997 195.795 330.079C195.771 330.16 195.733 330.234 195.683 330.295C195.634 330.356 195.574 330.403 195.509 330.433C195.444 330.462 195.374 330.473 195.305 330.465C195.238 330.47 195.17 330.457 195.107 330.427C195.044 330.396 194.986 330.349 194.939 330.288C194.892 330.227 194.855 330.154 194.832 330.074C194.809 329.993 194.8 329.908 194.806 329.823H194.805ZM192.555 333.324C192.415 332.623 192.084 331.102 191.96 330.365H191.95C191.845 331.102 191.581 332.348 191.371 333.324H192.555ZM191.165 334.345L190.77 336.234C190.76 336.284 190.745 336.297 190.695 336.297H189.961C189.911 336.297 189.901 336.278 189.911 336.202L191.331 329.941C191.365 329.77 191.382 329.595 191.381 329.418C191.381 329.374 191.396 329.355 191.421 329.355H192.471C192.506 329.355 192.521 329.368 192.531 329.418L194.121 336.213C194.131 336.263 194.121 336.295 194.081 336.295H193.251C193.211 336.295 193.186 336.283 193.176 336.241L192.766 334.346H191.166L191.165 334.345Z" fill="#A900E4"/>
<path fill-rule="evenodd" clip-rule="evenodd" d="M82 364.567C82 364.236 82.1107 363.918 82.3077 363.684C82.5047 363.45 82.7719 363.318 83.0505 363.318H93.5224C93.6604 363.318 93.7972 363.35 93.9248 363.413C94.0524 363.475 94.1684 363.567 94.2661 363.683C94.3638 363.799 94.4413 363.937 94.4941 364.089C94.5469 364.24 94.5741 364.403 94.574 364.567V377.014C94.5742 377.178 94.5471 377.341 94.4943 377.492C94.4416 377.644 94.3642 377.782 94.2665 377.898C94.1689 378.014 94.053 378.106 93.9254 378.169C93.7978 378.232 93.661 378.264 93.5229 378.264H83.0505C82.9125 378.264 82.7758 378.232 82.6484 378.169C82.5209 378.106 82.405 378.014 82.3075 377.898C82.2099 377.782 82.1326 377.644 82.0798 377.493C82.027 377.341 81.9999 377.179 82 377.015V364.567ZM86.977 369.017H88.6797V370.033C88.9254 369.449 89.5541 368.923 90.4989 368.923C92.3101 368.923 92.7393 370.087 92.7393 372.222V376.177H90.9064V372.708C90.9064 371.492 90.6606 370.806 90.0365 370.806C89.1706 370.806 88.8105 371.546 88.8105 372.708V376.177H86.977V369.017ZM83.8335 376.084H85.667V368.923H83.8335V376.083V376.084ZM85.9294 366.587C85.9328 366.774 85.9049 366.959 85.8472 367.133C85.7895 367.307 85.7032 367.465 85.5934 367.598C85.4836 367.732 85.3525 367.838 85.2078 367.91C85.063 367.982 84.9076 368.02 84.7506 368.02C84.5935 368.02 84.4381 367.982 84.2934 367.91C84.1486 367.838 84.0175 367.732 83.9077 367.598C83.7979 367.465 83.7116 367.307 83.6539 367.133C83.5962 366.959 83.5683 366.774 83.5718 366.587C83.5785 366.221 83.7057 365.873 83.926 365.616C84.1464 365.36 84.4423 365.217 84.7506 365.217C85.0588 365.217 85.3548 365.36 85.5751 365.616C85.7954 365.873 85.9226 366.221 85.9294 366.587Z" fill="#A900E4"/>
<path d="M140.754 497.43L142.232 499.826L149.714 497.43M132.979 516.089L137.027 511.516L134.591 508.495M140.14 497.43L137.977 499.682L141.616 499.838M131.731 497.431L132.507 499.271L136.79 499.578M134.023 506.971L137.187 500.153L128 499.577M134.391 507.402L137.38 511.111L140.676 507.379L141.698 500.425L137.682 500.186L134.391 507.402Z" fill="#A900E4"/>
<defs>
<linearGradient id="paint0_linear_167_44" x1="522.786" y1="24.5" x2="522.786" y2="302" gradientUnits="userSpaceOnUse">
<stop stop-color="#3D1768"/>
<stop offset="1" stop-color="#3D1768" stop-opacity="0"/>
</linearGradient>
<linearGradient id="paint1_linear_167_44" x1="487.256" y1="41.5" x2="487.256" y2="311.5" gradientUnits="userSpaceOnUse">
<stop stop-color="#3D1768"/>
<stop offset="1" stop-color="#3D1768" stop-opacity="0"/>
</linearGradient>
<linearGradient id="paint2_linear_167_44" x1="445.75" y1="57" x2="445.75" y2="328" gradientUnits="userSpaceOnUse">
<stop stop-color="#3D1768"/>
<stop offset="1" stop-color="#3D1768" stop-opacity="0"/>
</linearGradient>
<linearGradient id="paint3_linear_167_44" x1="367.252" y1="59" x2="367.252" y2="334.5" gradientUnits="userSpaceOnUse">
<stop stop-color="#3D1768"/>
<stop offset="1" stop-color="#3D1768" stop-opacity="0"/>
</linearGradient>
<linearGradient id="paint4_linear_167_44" x1="401.423" y1="57" x2="401.423" y2="344" gradientUnits="userSpaceOnUse">
<stop stop-color="#3D1768"/>
<stop offset="1" stop-color="#3D1768" stop-opacity="0"/>
</linearGradient>
<linearGradient id="paint5_linear_167_44" x1="437" y1="63" x2="437" y2="360" gradientUnits="userSpaceOnUse">
<stop stop-color="#3D1768"/>
<stop offset="1" stop-color="#3D1768" stop-opacity="0"/>
</linearGradient>
<radialGradient id="paint6_radial_167_44" cx="0" cy="0" r="1" gradientUnits="userSpaceOnUse" gradientTransform="translate(452 431) rotate(90) scale(165 271)">
<stop stop-color="#763CAC"/>
<stop offset="1" stop-color="#320F85" stop-opacity="0"/>
</radialGradient>
<linearGradient id="paint7_linear_167_44" x1="440" y1="290" x2="440" y2="470" gradientUnits="userSpaceOnUse">
<stop stop-color="#301080" stop-opacity="0.6"/>
<stop offset="1" stop-color="#7840AD" stop-opacity="0.36"/>
</linearGradient>
<linearGradient id="paint8_linear_167_44" x1="440.5" y1="299" x2="440.5" y2="568" gradientUnits="userSpaceOnUse">
<stop stop-opacity="0"/>
<stop offset="0.479167" stop-color="#A900E4" stop-opacity="0.8"/>
</linearGradient>
<linearGradient id="paint9_linear_167_44" x1="445" y1="299" x2="445" y2="568" gradientUnits="userSpaceOnUse">
<stop stop-opacity="0"/>
<stop offset="0.479167" stop-color="#A900E4" stop-opacity="0.8"/>
</linearGradient>
<linearGradient id="paint10_linear_167_44" x1="455.5" y1="299" x2="455.5" y2="568" gradientUnits="userSpaceOnUse">
<stop stop-opacity="0"/>
<stop offset="0.479167" stop-color="#A900E4" stop-opacity="0.8"/>
</linearGradient>
<linearGradient id="paint11_linear_167_44" x1="445" y1="227" x2="445" y2="502" gradientUnits="userSpaceOnUse">
<stop offset="0.197917" stop-opacity="0"/>
<stop offset="1" stop-color="#763CAC"/>
</linearGradient>
<linearGradient id="paint12_linear_167_44" x1="444.5" y1="318" x2="444.5" y2="482" gradientUnits="userSpaceOnUse">
<stop offset="0.197917" stop-opacity="0"/>
<stop offset="1" stop-color="#763CAC"/>
</linearGradient>
</defs>
</svg>
