<svg width="44" height="44" viewBox="0 0 44 44" fill="none" xmlns="http://www.w3.org/2000/svg">
<circle cx="22" cy="22" r="22" fill="#251C31"/>
<g clip-path="url(#clip0_158_12)">
<path d="M23.4075 4.35251L23.4074 4.35239C22.6106 3.57501 21.3117 3.57455 20.5128 4.35247L23.4075 4.35251ZM23.4075 4.35251L40.6312 21.145C40.6312 21.145 40.6312 21.145 40.6313 21.1451C41.0126 21.5171 41.2244 22.0188 41.2245 22.5391C41.2245 23.0595 41.0128 23.5613 40.6314 23.9334L23.4887 40.6475L23.4075 4.35251ZM27.8155 25.1437L27.8155 25.1437C27.3231 24.6633 26.986 24.0501 26.8486 23.3805C26.7346 22.825 26.7626 22.2526 26.9274 21.7135L23.9293 18.7903L23.9288 27.7694C24.1632 27.9094 24.3807 28.0759 24.5766 28.266L24.5774 28.2668C25.9596 29.614 25.9591 31.8023 24.5778 33.1515L24.5774 33.152C23.2024 34.4919 20.9786 34.4921 19.6046 33.1518L19.6044 33.1516C18.2231 31.8026 18.2226 29.6143 19.6047 28.2668C19.8527 28.0247 20.1355 27.8209 20.4434 27.6615V17.7425C20.135 17.583 19.8518 17.3787 19.6038 17.1357C18.6481 16.2038 18.3547 14.8698 18.722 13.6882L14.83 9.89353L3.3691 21.0673C2.98772 21.4393 2.77587 21.941 2.77587 22.4613C2.77587 22.9817 2.98772 23.4833 3.3691 23.8553L20.5931 40.6478L20.2441 41.0058L20.5931 40.6478C21.3906 41.4253 22.6889 41.4258 23.4884 40.6478L27.8155 25.1437ZM27.8155 25.1437C28.1432 25.4633 28.5316 25.7163 28.9582 25.8886C29.3848 26.0609 29.8416 26.1495 30.3027 26.1495C30.7637 26.1495 31.2205 26.0609 31.6471 25.8886C32.0736 25.7163 32.462 25.4634 32.7896 25.1438L27.8155 25.1437ZM17.3037 7.48192L20.5126 4.35266L32.7898 25.1437C34.172 23.7962 34.1722 21.6073 32.7899 20.2602C31.8832 19.3743 30.6101 19.0801 29.4588 19.3581L25.5105 15.5083C25.7914 14.3769 25.4812 13.1349 24.5774 12.2526L24.5772 12.2525C23.6752 11.373 22.414 11.0761 21.2671 11.3462L17.3037 7.48192Z" fill="#F34F29" stroke="black"/>
</g>
<defs>
<clipPath id="clip0_158_12">
<rect width="40" height="39" fill="white" transform="translate(2 3)"/>
</clipPath>
</defs>
</svg>
