<svg width="44" height="44" viewBox="0 0 44 44" fill="none" xmlns="http://www.w3.org/2000/svg">
<circle cx="22" cy="22" r="22" fill="#251C31"/>
<g clip-path="url(#clip0_198_5)">
<path d="M13.7813 9.3375H31.2187C33.8626 9.3375 36 11.4749 36 14.1188V30.8812C36 33.5251 33.8626 35.6625 31.2187 35.6625H13.7813C11.1374 35.6625 9 33.5251 9 30.8812V14.1188C9 11.4749 11.1374 9.3375 13.7813 9.3375Z" fill="#001E36"/>
<path d="M18.6751 16.0312C18.3376 16.0312 18.0001 16.0312 17.6514 16.0426C17.3025 16.0538 16.9762 16.0538 16.6724 16.0651C16.3687 16.0763 16.0875 16.0763 15.8175 16.0875C15.5587 16.0987 15.3788 16.0987 15.1874 16.0987C15.1088 16.0987 15.075 16.1436 15.075 16.2225V27.7988C15.075 27.9 15.1199 27.9451 15.21 27.9451H17.3926C17.4713 27.9338 17.5276 27.8663 17.5162 27.7876V24.1763C17.7299 24.1763 17.8874 24.1763 18.0001 24.1875C18.1125 24.1987 18.2924 24.1987 18.5624 24.1987C19.4851 24.1987 20.3288 24.0974 21.0937 23.8163C21.825 23.5463 22.4551 23.0738 22.905 22.4437C23.3549 21.8138 23.58 21.015 23.58 20.0474C23.58 19.5412 23.4902 19.0575 23.3214 18.585C23.1427 18.1036 22.8626 17.6662 22.5 17.3025C22.0722 16.8869 21.5572 16.5717 20.9924 16.3799C20.3624 16.1436 19.5975 16.0312 18.6751 16.0312ZM18.9261 18.2471C19.3269 18.2547 19.7171 18.3247 20.0812 18.4724C20.4075 18.5962 20.6775 18.8213 20.8688 19.1136C21.0485 19.4161 21.1383 19.7635 21.1277 20.1151C21.1277 20.61 21.015 20.9926 20.7788 21.2738C20.5311 21.555 20.2162 21.7689 19.8563 21.8701C19.4399 22.0051 19.0012 22.0724 18.5624 22.0724H17.9661C17.8311 22.0724 17.6852 22.0613 17.5276 22.0501V18.2701C17.6063 18.2587 17.7638 18.2475 17.9889 18.2589C18.2026 18.2475 18.4612 18.2475 18.7538 18.2475C18.8113 18.246 18.8689 18.2458 18.9261 18.2471ZM28.3613 18.8215C27.5625 18.8215 26.8987 18.9451 26.3701 19.2151C25.8864 19.4401 25.47 19.8 25.1888 20.2499C24.9414 20.6663 24.8062 21.1274 24.8062 21.6113C24.7965 22.0093 24.8855 22.4035 25.065 22.7588C25.2755 23.1371 25.5676 23.4638 25.9202 23.715C26.4151 24.0534 26.9521 24.3257 27.5176 24.525C28.0688 24.7387 28.44 24.9074 28.6202 25.0536C28.8001 25.2 28.8902 25.3462 28.8902 25.5038C28.8902 25.7063 28.7663 25.8976 28.5864 25.9763C28.3839 26.0775 28.0802 26.1338 27.6526 26.1338C27.2027 26.1338 26.7525 26.0775 26.3249 25.9651C25.834 25.8553 25.3634 25.6693 24.93 25.4139C24.8963 25.3913 24.8625 25.3801 24.8288 25.4027C24.795 25.4251 24.7838 25.47 24.7838 25.5038V27.4613C24.7727 27.5513 24.8288 27.63 24.9077 27.6749C25.2725 27.8454 25.6584 27.9665 26.0552 28.035C26.5614 28.1363 27.0674 28.1812 27.5849 28.1812C28.3949 28.1812 29.0701 28.0576 29.6213 27.8213C30.1275 27.6188 30.5663 27.2701 30.8812 26.82C31.176 26.3774 31.3291 25.8555 31.3199 25.3238C31.3309 24.9221 31.2421 24.524 31.0613 24.1651C30.8474 23.7825 30.5437 23.4676 30.1724 23.2313C29.6293 22.8903 29.0478 22.6146 28.44 22.4099C28.1686 22.2976 27.902 22.1738 27.6412 22.0387C27.495 21.96 27.36 21.8588 27.2588 21.7349C27.1913 21.6449 27.1463 21.5438 27.1463 21.4426C27.1463 21.3413 27.1801 21.2289 27.2362 21.1388C27.3151 21.0264 27.4387 20.9475 27.5849 20.9138C27.7988 20.8576 28.035 20.8237 28.2599 20.8349C28.6874 20.8349 29.1036 20.8912 29.52 20.9813C29.9027 21.0599 30.2625 21.1838 30.6 21.3639C30.6449 21.3863 30.7013 21.3863 30.8025 21.3639C30.8201 21.3509 30.8344 21.3339 30.8442 21.3144C30.854 21.2948 30.859 21.2731 30.8588 21.2513V19.4176C30.8588 19.3724 30.8474 19.3275 30.8363 19.2826C30.8137 19.2376 30.7688 19.1925 30.7238 19.1813C30.4136 19.0544 30.0884 18.9675 29.7563 18.9225C29.2943 18.8552 28.8281 18.8216 28.3613 18.8215Z" fill="#31A8FF"/>
</g>
<defs>
<clipPath id="clip0_198_5">
<rect width="27" height="27" fill="white" transform="translate(9 9)"/>
</clipPath>
</defs>
</svg>
