<svg width="44" height="44" viewBox="0 0 44 44" fill="none" xmlns="http://www.w3.org/2000/svg">
<circle cx="22" cy="22" r="22" fill="#251C31"/>
<path d="M22.3144 4.73181C21.0281 4.73791 19.8002 4.84729 18.7191 5.03863C15.5351 5.60109 14.9575 6.7784 14.9575 8.94991V11.8173H22.4811V12.7731H12.1336C9.94718 12.7731 8.03252 14.0872 7.43351 16.5881C6.74248 19.4537 6.71201 21.2422 7.43351 24.2346C7.96824 26.4621 9.24548 28.0489 11.4322 28.0489H14.0193V24.6115C14.0193 22.1279 16.1677 19.9375 18.7194 19.9375H26.2346C28.3265 19.9375 29.9962 18.2148 29.9962 16.1143V8.95021C29.9962 6.91094 28.276 5.37927 26.2346 5.03894C24.9415 4.82383 23.6005 4.72602 22.3144 4.73181ZM18.2456 7.03799C19.0226 7.03799 19.6576 7.68302 19.6576 8.47642C19.6576 9.26648 19.0229 9.90541 18.2456 9.90541C17.4656 9.90541 16.834 9.26648 16.834 8.47642C16.8337 7.68302 17.4656 7.03799 18.2456 7.03799Z" fill="url(#paint0_linear_158_13)"/>
<path d="M30.9344 12.7731V16.1143C30.9344 18.7042 28.7382 20.8842 26.2342 20.8842H18.7191C16.6607 20.8842 14.9575 22.6462 14.9575 24.7077V31.8725C14.9575 33.9111 16.7301 35.1107 18.7191 35.6954C21.1006 36.3952 23.3845 36.522 26.2342 35.6954C28.1282 35.1466 29.9959 34.0431 29.9959 31.8725V29.0047H22.4811V28.0486H33.7582C35.9446 28.0486 36.76 26.5237 37.5205 24.2343C38.306 21.8775 38.2721 19.6109 37.5205 16.5878C36.98 14.4108 35.948 12.7728 33.7582 12.7728L30.9344 12.7731ZM26.7074 30.9164C27.4877 30.9164 28.1193 31.5553 28.1193 32.3459C28.1193 33.1387 27.4874 33.7838 26.7074 33.7838C25.9305 33.7838 25.2958 33.1387 25.2958 32.3459C25.2958 31.5553 25.9305 30.9164 26.7074 30.9164Z" fill="url(#paint1_linear_158_13)"/>
<path opacity="0.444" d="M32.6488 37.4397C32.6488 38.5192 28.1346 39.3946 22.5664 39.3946C16.998 39.3946 12.4837 38.5192 12.4837 37.4397C12.4837 36.3599 16.9976 35.4845 22.5664 35.4845C28.1346 35.4845 32.6488 36.3596 32.6488 37.4397Z" fill="url(#paint2_radial_158_13)"/>
<defs>
<linearGradient id="paint0_linear_158_13" x1="6.14952" y1="5.6284" x2="23.5026" y2="20.427" gradientUnits="userSpaceOnUse">
<stop stop-color="#A900E4"/>
<stop offset="1" stop-color="#306998"/>
</linearGradient>
<linearGradient id="paint1_linear_158_13" x1="30.0315" y1="29.6261" x2="23.8084" y2="20.8992" gradientUnits="userSpaceOnUse">
<stop stop-color="white"/>
<stop offset="1" stop-color="#FFE873"/>
</linearGradient>
<radialGradient id="paint2_radial_158_13" cx="0" cy="0" r="1" gradientUnits="userSpaceOnUse" gradientTransform="translate(22.5257 37.3837) rotate(-90) scale(1.95558 8.59641)">
<stop stop-color="#B8B8B8" stop-opacity="0.498"/>
<stop offset="1" stop-color="#7F7F7F" stop-opacity="0"/>
</radialGradient>
</defs>
</svg>
