<svg width="44" height="44" viewBox="0 0 44 44" fill="none" xmlns="http://www.w3.org/2000/svg">
<circle cx="22" cy="22" r="22" fill="#251C31"/>
<g clip-path="url(#clip0_198_8)">
<mask id="mask0_198_8" style="mask-type:alpha" maskUnits="userSpaceOnUse" x="10" y="8" width="24" height="27">
<path fill-rule="evenodd" clip-rule="evenodd" d="M27.0188 34.8156C27.2098 34.8994 27.4141 34.9381 27.6189 34.9292C27.8237 34.9204 28.0247 34.8642 28.2094 34.7642L33.1506 32.0893C33.4051 31.9515 33.6198 31.7356 33.7701 31.4666C33.9203 31.1976 34 30.8863 34 30.5686V12.4316C34.0001 12.1138 33.9204 11.8025 33.7701 11.5335C33.6199 11.2644 33.4051 11.0486 33.1506 10.9107L28.2094 8.23625C27.9302 8.08511 27.6162 8.03535 27.3107 8.09385C27.0053 8.15235 26.7235 8.31622 26.5045 8.56278L17.0451 18.2714L12.925 14.7527C12.7391 14.594 12.5097 14.5134 12.2766 14.5251C12.0435 14.5367 11.8213 14.6398 11.6487 14.8164L10.3272 16.1688C10.2242 16.2741 10.1419 16.4025 10.0856 16.5457C10.0292 16.689 10 16.8438 9.99994 17.0004C9.99983 17.157 10.0288 17.3119 10.0849 17.4552C10.1411 17.5986 10.2232 17.7271 10.3261 17.8326L13.8993 21.5L10.3263 25.1676C10.2235 25.2731 10.1414 25.4017 10.0853 25.5449C10.0291 25.6882 10.0002 25.8431 10.0003 25.9997C10.0004 26.1563 10.0296 26.3111 10.0859 26.4543C10.1422 26.5975 10.2245 26.7258 10.3274 26.8312L11.6489 28.1836C11.8215 28.3603 12.0436 28.4634 12.2768 28.4751C12.5099 28.4868 12.7393 28.4062 12.9252 28.2475L17.0453 24.729L26.5047 34.4374C26.651 34.6023 26.8259 34.7311 27.0188 34.8156ZM28.0036 15.3708L20.8263 21.5L28.0038 27.6294L28.0036 15.3708Z" fill="white"/>
</mask>
<g mask="url(#mask0_198_8)">
<path d="M33.1508 10.9151L28.2057 8.23622C27.9263 8.08498 27.6121 8.03517 27.3066 8.09367C27.001 8.15217 26.7191 8.31609 26.5 8.56275L10.3116 25.1675C10.2087 25.2731 10.1266 25.4016 10.0704 25.5449C10.0142 25.6881 9.98528 25.843 9.98538 25.9996C9.98549 26.1563 10.0147 26.3111 10.071 26.4543C10.1274 26.5975 10.2097 26.7259 10.3127 26.8312L11.635 28.1835C11.8077 28.3602 12.03 28.4634 12.2632 28.475C12.4965 28.4867 12.726 28.4062 12.912 28.2474L32.4066 11.6097C33.0606 11.0516 34 11.5764 34 12.4999V12.4353C34 12.1177 33.9203 11.8065 33.77 11.5375C33.6198 11.2686 33.4052 11.053 33.1508 10.9151Z" fill="#0065A9"/>
<g filter="url(#filter0_d_198_8)">
<path d="M33.1508 32.085L28.2057 34.7635C27.9264 34.9148 27.6122 34.9647 27.3066 34.9063C27.0011 34.8478 26.7192 34.684 26.5 34.4374L10.3116 17.8324C10.2088 17.7269 10.1266 17.5984 10.0704 17.4551C10.0143 17.3118 9.98531 17.1569 9.98541 17.0003C9.98552 16.8437 10.0147 16.6888 10.0711 16.5457C10.1274 16.4025 10.2097 16.2741 10.3127 16.1687L11.635 14.8164C11.8077 14.6397 12.03 14.5366 12.2633 14.5249C12.4965 14.5132 12.726 14.5938 12.9121 14.7525L32.4066 31.39C33.0606 31.9484 34 31.4235 34 30.5001V30.5646C34 30.8823 33.9203 31.1935 33.7701 31.4624C33.6198 31.7314 33.4052 31.9472 33.1508 32.085Z" fill="#007ACC"/>
</g>
<g filter="url(#filter1_d_198_8)">
<path d="M28.2058 34.7642C27.9265 34.9153 27.6122 34.9651 27.3066 34.9065C27.001 34.848 26.7192 34.6841 26.5 34.4375C27.0535 35.0601 28 34.6191 28 33.7384V9.26144C28 8.38077 27.0535 7.9397 26.5 8.5626C26.7192 8.31597 27.001 8.15206 27.3066 8.09352C27.6122 8.03499 27.9265 8.08472 28.2058 8.23586L33.15 10.911C33.4046 11.0487 33.6195 11.2645 33.7698 11.5336C33.9202 11.8026 34 12.114 34 12.4318V30.5687C34 30.8865 33.9202 31.1978 33.7698 31.4669C33.6195 31.736 33.4046 31.9518 33.15 32.0895L28.2058 34.7642Z" fill="#1F9CF0"/>
</g>
<path style="mix-blend-mode:overlay" opacity="0.25" fill-rule="evenodd" clip-rule="evenodd" d="M27.0044 34.8156C27.1953 34.8993 27.3995 34.938 27.6043 34.9291C27.8091 34.9202 28.0101 34.8641 28.1948 34.7641L33.136 32.0892C33.3905 31.9514 33.6052 31.7355 33.7555 31.4665C33.9057 31.1974 33.9854 30.8861 33.9854 30.5683V12.4315C33.9854 12.1138 33.9057 11.8024 33.7555 11.5334C33.6052 11.2643 33.3905 11.0485 33.136 10.9107L28.1948 8.23618C27.9156 8.08504 27.6015 8.03528 27.2961 8.09378C26.9906 8.15228 26.7089 8.31615 26.4899 8.56271L17.0305 18.2713L12.9104 14.7529C12.7245 14.5941 12.4951 14.5136 12.262 14.5252C12.0288 14.5368 11.8067 14.6399 11.634 14.8166L10.3125 16.1689C10.2096 16.2743 10.1273 16.4027 10.071 16.5459C10.0146 16.6891 9.98549 16.844 9.98538 17.0006C9.98528 17.1572 10.0142 17.3121 10.0704 17.4554C10.1265 17.5987 10.2086 17.7272 10.3114 17.8328L13.8846 21.4999L10.3116 25.1673C10.2088 25.2728 10.1266 25.4014 10.0705 25.5447C10.0143 25.688 9.98537 25.8429 9.98548 25.9995C9.98558 26.1561 10.0147 26.311 10.0711 26.4542C10.1274 26.5974 10.2097 26.7258 10.3127 26.8312L11.6342 28.1835C11.8068 28.3602 12.029 28.4633 12.2621 28.475C12.4953 28.4866 12.7247 28.4061 12.9105 28.2474L17.0309 24.7287L26.4902 34.4374C26.6364 34.6022 26.8115 34.731 27.0044 34.8156ZM27.9891 15.3705L20.8116 21.4999L27.9891 27.6291V15.3705Z" fill="url(#paint0_linear_198_8)"/>
</g>
</g>
<defs>
<filter id="filter0_d_198_8" x="1.65207" y="6.19046" width="40.6813" height="37.0729" filterUnits="userSpaceOnUse" color-interpolation-filters="sRGB">
<feFlood flood-opacity="0" result="BackgroundImageFix"/>
<feColorMatrix in="SourceAlpha" type="matrix" values="0 0 0 0 0 0 0 0 0 0 0 0 0 0 0 0 0 0 127 0" result="hardAlpha"/>
<feOffset/>
<feGaussianBlur stdDeviation="4.16667"/>
<feColorMatrix type="matrix" values="0 0 0 0 0 0 0 0 0 0 0 0 0 0 0 0 0 0 0.25 0"/>
<feBlend mode="overlay" in2="BackgroundImageFix" result="effect1_dropShadow_198_8"/>
<feBlend mode="normal" in="SourceGraphic" in2="effect1_dropShadow_198_8" result="shape"/>
</filter>
<filter id="filter1_d_198_8" x="18.1666" y="-0.263691" width="24.1667" height="43.5274" filterUnits="userSpaceOnUse" color-interpolation-filters="sRGB">
<feFlood flood-opacity="0" result="BackgroundImageFix"/>
<feColorMatrix in="SourceAlpha" type="matrix" values="0 0 0 0 0 0 0 0 0 0 0 0 0 0 0 0 0 0 127 0" result="hardAlpha"/>
<feOffset/>
<feGaussianBlur stdDeviation="4.16667"/>
<feColorMatrix type="matrix" values="0 0 0 0 0 0 0 0 0 0 0 0 0 0 0 0 0 0 0.25 0"/>
<feBlend mode="overlay" in2="BackgroundImageFix" result="effect1_dropShadow_198_8"/>
<feBlend mode="normal" in="SourceGraphic" in2="effect1_dropShadow_198_8" result="shape"/>
</filter>
<linearGradient id="paint0_linear_198_8" x1="21.9854" y1="8.06952" x2="21.9854" y2="34.9303" gradientUnits="userSpaceOnUse">
<stop stop-color="white"/>
<stop offset="1" stop-color="white" stop-opacity="0"/>
</linearGradient>
<clipPath id="clip0_198_8">
<rect width="24" height="27" fill="white" transform="translate(10 8)"/>
</clipPath>
</defs>
</svg>
